<svg 
          width="35" 
          height="33.22616195678711" fill="none" 
          xmlns="http://www.w3.org/2000/svg">
          <path d="M 17.82421875 28.997560501098633 C 17.716381072998047 28.999183654785156 17.608304977416992 29 17.5 29 C 7.835016250610352 29 0 22.508129119873047 0 14.5 C 0 6.491870880126953 7.835016250610352 0 17.5 0 C 27.16498374938965 0 35 6.491870880126953 35 14.5 C 35 16.52528190612793 34.498870849609375 18.453584671020508 33.59375 20.204423904418945 C 32.379390716552734 22.67972755432129 30.50509262084961 24.888809204101562 28.47203826904297 26.794477462768555 C 25.374313354492188 29.698108673095703 21.79008674621582 31.889991760253906 19.237821578979492 33.125308990478516 C 18.562694549560547 33.45207595825195 17.82421875 32.940425872802734 17.82421875 32.22784423828125 L 17.82421875 28.997560501098633 Z M 11.5 15.25 C 11.5 16.630712509155273 10.380711555480957 17.75 9 17.75 C 7.619287967681885 17.75 6.5 16.630712509155273 6.5 15.25 C 6.5 13.869288444519043 7.619287967681885 12.75 9 12.75 C 10.380711555480957 12.75 11.5 13.869288444519043 11.5 15.25 Z M 17.5 17.75 C 18.880712509155273 17.75 20 16.630712509155273 20 15.25 C 20 13.869288444519043 18.880712509155273 12.75 17.5 12.75 C 16.119287490844727 12.75 15 13.869288444519043 15 15.25 C 15 16.630712509155273 16.119287490844727 17.75 17.5 17.75 Z M 28.5 15.25 C 28.5 16.630712509155273 27.380712509155273 17.75 26 17.75 C 24.619287490844727 17.75 23.5 16.630712509155273 23.5 15.25 C 23.5 13.869288444519043 24.619287490844727 12.75 26 12.75 C 27.380712509155273 12.75 28.5 13.869288444519043 28.5 15.25 Z" fill="rgb(250.75000405311584,250.75000405311584,250.75000405311584)"/>
        </svg>